<svg id="Calque_1" data-name="Calque 1" xmlns="http://www.w3.org/2000/svg" viewBox="0 0 178.14 46.19"><path d="M259.08,135.06h-.77a1.46,1.46,0,0,1-1.57-1.29V107.85h2.34Z" transform="translate(-119.02 -90.54)" style="fill:#e6332a"/><text transform="translate(0 17.85)" style="font-size:21px;fill:#1d71b8;font-family:NexaBold, Nexa Bold"><tspan style="letter-spacing:0.02099609375em">C</tspan><tspan x="14.3" y="0">LINIQUE A</tspan><tspan x="117.41" y="0" style="letter-spacing:0.02097284226190476em">F</tspan><tspan x="130.32" y="0" style="fill:#e6332a;letter-spacing:0.00004650297619047619em">O</tspan><tspan x="146.81" y="0">UA</tspan></text><path d="M255.66,125.72c3.32-.17,12.32.21,11.58,5.78-.55,4.12-7.59,4.7-10.63,4.73" transform="translate(-119.02 -90.54)" style="fill:none;stroke:#e6332a;stroke-miterlimit:10"/><path d="M258.25,125.69h-.52c-8.11-.2-14.6-3.93-14.49-8.34s6.77-7.82,14.88-7.62a25.71,25.71,0,0,1,5.66.76" transform="translate(-119.02 -90.54)" style="fill:none;stroke:#e6332a;stroke-miterlimit:10"/></svg>