<svg id="Calque_1" data-name="Calque 1" xmlns="http://www.w3.org/2000/svg" viewBox="0 0 80.7 31.33"><defs><style>.cls-1,.cls-4{fill:#e6332a;}.cls-2{font-size:16.44px;fill:#1d71b8;font-family:NexaBold, Nexa Bold;}.cls-3{letter-spacing:0.02em;}.cls-4{letter-spacing:0em;}.cls-5{fill:none;stroke:#e6332a;stroke-miterlimit:10;}</style></defs><path class="cls-1" d="M161,122.46v-5.9l-.05-.4v-.06a1,1,0,0,1,.06-.39V107h-2.07v15.36" transform="translate(-119.02 -93.01)"/><text class="cls-2" transform="translate(0 13.97) scale(1.28 1)"><tspan xml:space="preserve"> A</tspan><tspan class="cls-3" x="15.63" y="0">F</tspan><tspan class="cls-4" x="25.74" y="0">O</tspan><tspan x="38.65" y="0">UA</tspan></text><path class="cls-5" d="M157.25,115.38c2.24-.14,8.28.16,7.78,4.65-.37,3.32-5.1,3.79-7.14,3.81" transform="translate(-119.02 -93.01)"/><path class="cls-5" d="M160.59,115.35c-2.08,0-9.88.27-10.38-2.94-.81-5.24,12-3.54,14.12-3.31" transform="translate(-119.02 -93.01)"/></svg>